<svg id="Layer_1" data-name="Layer 1" xmlns="http://www.w3.org/2000/svg" viewBox="0 0 480.97 50"><defs><style>.cls-1{fill:#1a1a1a;}.cls-2{fill:#c1272d;}.cls-3{fill:#fff;}</style></defs><title>IrenSayWhen_logotype_black_vector</title><path class="cls-1" d="M48.34,12c-2.44,1.26-7.88,1.37-10.78,1.37S29.22,13.3,26.79,12a70.87,70.87,0,0,1-14.41,9c1.07,1.14,6.76,3.1,9.53,3.1s5.21-.56,9-.56,5.84.56,6.64,1.85c.8-1.29,2.83-1.85,6.64-1.85s6.24.56,9,.56,8.47-2,9.54-3.1A70.6,70.6,0,0,1,48.34,12Z"/><rect class="cls-1" x="11.13" y="11.19" width="52.87" height="18.73"/><path class="cls-2" d="M47.53,1.12c-5.18,0-5.18.8-10,.8s-4.78-.8-10-.8C17.7,1.12,10.6,12.89,0,18.84,6.36,29,16.4,41.45,37.56,41.45S68.77,29,75.12,18.84C64.52,12.89,57.43,1.12,47.53,1.12Zm5.69,23c-2.77,0-5.21-.55-9-.55s-5.83.55-6.64,1.84c-.8-1.29-2.83-1.84-6.63-1.84s-6.25.55-9,.55-8.46-2-9.53-3.1a70.6,70.6,0,0,0,14.41-9c2.44,1.26,7.88,1.37,10.77,1.37S45.9,13.3,48.34,12a70.6,70.6,0,0,0,14.41,9C61.68,22.2,56,24.16,53.22,24.16Z"/><path class="cls-3" d="M53.65,15.93a5.94,5.94,0,0,1-5.13,2.81H26.6a5.91,5.91,0,0,1-5.12-2.81c1.81-1.21,3.58-2.5,5.3-3.89,2.44,1.26,7.89,1.37,10.78,1.37S45.9,13.3,48.34,12C50.07,13.43,51.83,14.73,53.65,15.93Z"/><path class="cls-1" d="M107,7.52v23h6v6.77H92.34V30.54h6v-23h-6V.75H113V7.52Z"/><path class="cls-1" d="M142.47,11.57V23.29h-7V19.67a5.39,5.39,0,0,0-2.88,1.12A20,20,0,0,0,128.87,24V31h5.07v6.34H115.76V31h5V18.55h-5V12.21h13.11V17.7a23.56,23.56,0,0,1,5.33-4.48,10.3,10.3,0,0,1,5.23-1.65Z"/><path class="cls-1" d="M172.26,33.37a19,19,0,0,1-5.78,3.44,20.07,20.07,0,0,1-7.17,1.25,17.44,17.44,0,0,1-7.22-1.52,13.29,13.29,0,0,1-5.47-4.42,11.61,11.61,0,0,1-2.08-6.91,12.72,12.72,0,0,1,2.08-7.14,14,14,0,0,1,5.49-4.85,16.22,16.22,0,0,1,7.36-1.71,17.33,17.33,0,0,1,6.16,1,9.66,9.66,0,0,1,4.21,2.87,6.68,6.68,0,0,1,1.52,4.32,6.44,6.44,0,0,1-3.07,5.73,13.24,13.24,0,0,1-7.43,2,19.81,19.81,0,0,1-4.51-.48,20.29,20.29,0,0,1-4.08-1.44,5.53,5.53,0,0,0,2.3,4.24,8.34,8.34,0,0,0,5.06,1.52,14.93,14.93,0,0,0,9.33-3.2Zm-16-14.66a7.64,7.64,0,0,0-2.91,2.56,17.22,17.22,0,0,0,5.39.85,7.56,7.56,0,0,0,3.33-.67,1.89,1.89,0,0,0,1.15-1.73,1.65,1.65,0,0,0-.86-1.41,4.15,4.15,0,0,0-2.29-.56A8.1,8.1,0,0,0,156.3,18.71Z"/><path class="cls-1" d="M212,31v6.34H195.61V31h4V24a5,5,0,0,0-1.25-3.49,4.51,4.51,0,0,0-3.49-1.36q-3.73,0-7.73,4.79v7h4.05v6.34H174.07V31h5V18.55h-5V12.21h13.12V17.8a23.35,23.35,0,0,1,5.3-4.74A10.45,10.45,0,0,1,198,11.57a8.8,8.8,0,0,1,7.3,3.14q2.51,3.15,2.5,9.28v7Z"/><path class="cls-1" d="M244.59,20a8.86,8.86,0,0,1,3.89,7.52,9.5,9.5,0,0,1-1.65,5.6,10.49,10.49,0,0,1-4.53,3.59A16.07,16.07,0,0,1,235.8,38a16.63,16.63,0,0,1-6.56-1.34A26.88,26.88,0,0,1,223,32.89v4.37h-7.51V23.93l5.33-.26a21.33,21.33,0,0,0,6.93,5.46,16.77,16.77,0,0,0,7.46,2.11,6,6,0,0,0,3.12-.7,2.27,2.27,0,0,0,1.14-2.08q0-1.65-2.61-3a48.17,48.17,0,0,0-9.06-3.15q-6.39-1.76-9.33-4.61a9.6,9.6,0,0,1-2.93-7.17A9,9,0,0,1,217.3,5a11.6,11.6,0,0,1,4.64-3.67A14.67,14.67,0,0,1,228.07,0a15.56,15.56,0,0,1,11,4.1V.75h7.51v13L241.5,14a13,13,0,0,0-4.88-5.31,12.15,12.15,0,0,0-6.37-1.89,8.18,8.18,0,0,0-4.13.91,2.73,2.73,0,0,0-1.57,2.45c0,1,.66,1.86,2,2.58a35.45,35.45,0,0,0,7.14,2.48A35.41,35.41,0,0,1,244.59,20Z"/><path class="cls-1" d="M281.37,36.57a9.06,9.06,0,0,1-2.24.82,12.3,12.3,0,0,1-3,.35,6.47,6.47,0,0,1-3.76-1.15A6.37,6.37,0,0,1,270,33.32q-4.9,4.74-10.34,4.74A9,9,0,0,1,253.55,36a7.39,7.39,0,0,1-2.46-6,7.16,7.16,0,0,1,1.58-4.66,9.52,9.52,0,0,1,4-2.91,13.6,13.6,0,0,1,5-1,17.94,17.94,0,0,1,4.13.43,20.06,20.06,0,0,1,3.65,1.22V21.59a2.61,2.61,0,0,0-1.62-2.43,9.28,9.28,0,0,0-4.19-.82,20.91,20.91,0,0,0-4.31.53,33.88,33.88,0,0,0-5.07,1.55l-1.6-6.08a32.23,32.23,0,0,1,12.16-2.77c4,0,7.07.94,9.16,2.82A9.68,9.68,0,0,1,277.16,22v7.57c0,1,.44,1.55,1.33,1.55a4,4,0,0,0,1.34-.22ZM259.94,31a4.25,4.25,0,0,0,2.08.45,9.69,9.69,0,0,0,3.28-.77,18.44,18.44,0,0,0,4.18-2.38v-.1a18.47,18.47,0,0,0-6.13-1,7.45,7.45,0,0,0-3,.64,1.89,1.89,0,0,0-1.2,1.76A1.54,1.54,0,0,0,259.94,31Z"/><path class="cls-1" d="M312.5,18.55h-2.83L300.29,38.7q-2.71,5.91-5.89,8.61A11.06,11.06,0,0,1,287,50a11.77,11.77,0,0,1-4-.64,20.51,20.51,0,0,1-3.92-2l3.09-6.13A9.62,9.62,0,0,0,287,42.91a6.1,6.1,0,0,0,3.81-1.2,11.08,11.08,0,0,0,3-4.08L283.56,18.55h-3V12.21h15v5.65h-3.47l5.39,11.56,5.17-11.56h-3.31V12.21H312.5Z"/><path class="cls-1" d="M373.69,7.52h-5.33L357.38,38h-4.53L342,15.08,332.22,38h-4.47L316.5,7.52h-5.17V.75h19.51V7.52h-5.39l5.49,17,9.12-23h5.06l10,23.13,5.12-17h-5.33V.75h18.76Z"/><path class="cls-1" d="M412.85,31v6.34H396.43V31h4.06V24a5.54,5.54,0,0,0-1.26-3.79,4.38,4.38,0,0,0-3.49-1.44q-3.4,0-7.41,4.69V31h4v6.34H375.22V31h5V7.09h-5V.75h13.11V17.48a20.62,20.62,0,0,1,5.25-4.5,11.37,11.37,0,0,1,5.63-1.41q4.74,0,7.06,3.12t2.32,9.3v7Z"/><path class="cls-1" d="M441.21,33.37a19.15,19.15,0,0,1-5.78,3.44,20.07,20.07,0,0,1-7.17,1.25A17.52,17.52,0,0,1,421,36.54a13.33,13.33,0,0,1-5.46-4.42,11.54,11.54,0,0,1-2.08-6.91,12.64,12.64,0,0,1,2.08-7.14,14,14,0,0,1,5.49-4.85,16.19,16.19,0,0,1,7.36-1.71,17.24,17.24,0,0,1,6.15,1,9.6,9.6,0,0,1,4.21,2.87,6.63,6.63,0,0,1,1.52,4.32,6.44,6.44,0,0,1-3.06,5.73,13.27,13.27,0,0,1-7.44,2,19.78,19.78,0,0,1-4.5-.48,20.29,20.29,0,0,1-4.08-1.44,5.52,5.52,0,0,0,2.29,4.24,8.39,8.39,0,0,0,5.07,1.52,14.92,14.92,0,0,0,9.32-3.2Zm-16-14.66a7.68,7.68,0,0,0-2.9,2.56,17.2,17.2,0,0,0,5.38.85,7.58,7.58,0,0,0,3.34-.67,1.88,1.88,0,0,0,1.14-1.73,1.63,1.63,0,0,0-.85-1.41,4.15,4.15,0,0,0-2.29-.56A8.17,8.17,0,0,0,425.24,18.71Z"/><path class="cls-1" d="M481,31v6.34H464.56V31h4.05V24a5,5,0,0,0-1.25-3.49,4.51,4.51,0,0,0-3.5-1.36q-3.72,0-7.73,4.79v7h4.06v6.34H443V31h5V18.55h-5V12.21h13.11V17.8a23.58,23.58,0,0,1,5.31-4.74,10.42,10.42,0,0,1,5.46-1.49,8.79,8.79,0,0,1,7.3,3.14q2.51,3.15,2.51,9.28v7Z"/></svg>