<svg id="Layer_1" data-name="Layer 1" xmlns="http://www.w3.org/2000/svg" viewBox="0 0 75.12 40.33"><defs><style>.cls-1{fill:#1a1a1a;}.cls-2{fill:#c1272d;}.cls-3{fill:#fff;}</style></defs><title>IrenSayWhen_mark_vector</title><path class="cls-1" d="M48.34,10.92c-2.44,1.26-7.88,1.37-10.78,1.37s-8.34-.11-10.77-1.37a70.39,70.39,0,0,1-14.41,9C13.45,21.08,19.14,23,21.91,23s5.21-.56,9-.56,5.84.56,6.64,1.85c.8-1.29,2.83-1.85,6.64-1.85s6.24.56,9,.56,8.47-2,9.54-3.11A70.12,70.12,0,0,1,48.34,10.92Z"/><rect class="cls-1" x="11.13" y="10.07" width="52.87" height="18.73"/><path class="cls-2" d="M47.53,0c-5.18,0-5.18.8-10,.8s-4.78-.8-10-.8C17.7,0,10.6,11.77,0,17.72,6.36,27.84,16.4,40.33,37.56,40.33S68.77,27.84,75.12,17.72C64.52,11.77,57.43,0,47.53,0Zm5.69,23c-2.77,0-5.21-.54-9-.54s-5.83.54-6.64,1.84c-.8-1.3-2.83-1.84-6.63-1.84s-6.25.54-9,.54-8.46-2-9.53-3.09a71,71,0,0,0,14.41-9c2.44,1.25,7.88,1.36,10.77,1.36s8.34-.11,10.78-1.36a71,71,0,0,0,14.41,9C61.68,21.08,56,23,53.22,23Z"/><path class="cls-3" d="M53.65,14.81a5.94,5.94,0,0,1-5.13,2.81H26.6a5.91,5.91,0,0,1-5.12-2.81c1.81-1.21,3.58-2.5,5.3-3.89,2.44,1.25,7.89,1.36,10.78,1.36s8.34-.11,10.78-1.36C50.07,12.31,51.83,13.61,53.65,14.81Z"/></svg>